<?xml version="1.0" encoding="UTF-8" standalone="no"?>
<!-- Created with Inkscape (http://www.inkscape.org/) -->

<svg
   width="210mm"
   height="210mm"
   viewBox="0 0 210 210"
   version="1.1"
   id="svg5"
   xml:space="preserve"
   inkscape:version="1.2.2 (b0a8486541, 2022-12-01)"
   sodipodi:docname="logo.svg"
   xmlns:inkscape="http://www.inkscape.org/namespaces/inkscape"
   xmlns:sodipodi="http://sodipodi.sourceforge.net/DTD/sodipodi-0.dtd"
   xmlns="http://www.w3.org/2000/svg"
   xmlns:svg="http://www.w3.org/2000/svg"><sodipodi:namedview
     id="namedview7"
     pagecolor="#ffffff"
     bordercolor="#666666"
     borderopacity="1.0"
     inkscape:showpageshadow="2"
     inkscape:pageopacity="0.0"
     inkscape:pagecheckerboard="0"
     inkscape:deskcolor="#d1d1d1"
     inkscape:document-units="mm"
     showgrid="false"
     inkscape:zoom="0.39063903"
     inkscape:cx="774.37219"
     inkscape:cy="455.66363"
     inkscape:window-width="1920"
     inkscape:window-height="1051"
     inkscape:window-x="0"
     inkscape:window-y="0"
     inkscape:window-maximized="1"
     inkscape:current-layer="layer1" /><defs
     id="defs2" /><g
     inkscape:label="Слой 1"
     inkscape:groupmode="layer"
     id="layer1"><g
       id="g1746"
       transform="matrix(1.2758835,0,0,1.3473688,-6.6256947,-9.5150178)"><path
         d="m 71.039202,95.695261 -1.830363,0.55507 c -0.937555,2.1649 -1.562947,3.48813 -1.828233,3.945189 -0.77206,1.23013 -1.839239,2.24787 -3.104586,2.96076 0.1694,0.19177 0.121456,0.3356 -0.143829,0.43255 -0.288724,0 -0.793726,-0.28872 -1.565078,-0.8438 -0.745782,-0.57638 -1.250784,-0.84167 -1.539508,-0.84167 -0.192838,0.0969 -0.240781,0.19391 -0.144895,0.26529 -1.780289,0.6744 -4.474695,1.75578 -8.037404,3.24841 -2.1649,-7.506829 -4.233914,-15.544229 -6.207041,-24.111139 -4.788989,1.78029 -11.309262,4.6686 -19.587442,8.61485 -1.02309,6.32015 -1.87395,12.666979 -2.55164,19.033429 -0.17001,0.093 -0.36026,0.14272 -0.55401,0.1449 -0.28872,0 -0.67333,-0.33667 -1.20284,-0.98657 -0.50607,-0.6744 -0.86617,-0.98763 -1.05901,-0.98763 -0.64883,0 -1.20284,0.77029 -1.61302,2.31086 -0.43256,1.56402 -0.81823,2.47813 -1.20284,2.74342 0,-0.1694 -0.0479,-0.26529 -0.1449,-0.26529 -0.19284,0 -0.91411,0.52844 -2.1894,1.61196 -1.27529,1.08458 -1.99763,1.66096 -2.19047,1.75578 0.86617,-1.0345 1.27529,-2.81586 1.27529,-5.34193 l 0.69677,-1.13039 -0.98656,-2.26292 -2.95969,4.09115 0.57851,5.36644 c -0.89068,0.45705 -1.6844,0.69677 -2.3588,0.69677 -0.7937299,0 -1.3232299,-0.4805 -1.5640199,-1.42018 -0.24078,-0.93756 -0.40911,-1.39568 -0.50606,-1.39568 -0.40912,0 -0.98657,0.93862 -1.78029,2.81586 0.45706,-6.95282 0.69677,-14.82296 0.69677,-23.653019 0,-19.7089 2.3098,-43.21809 6.9059499,-70.529714 3.06417,-1.01038 6.1202,-2.045274 9.1678,-3.104585 0.74578,-0.287659 2.30979,-1.322166 4.66859,-3.103521 1.4905,-1.131458 3.36881,-1.683337 5.62959,-1.683337 1.49157,0 4.59615,-0.939686 9.312694,-2.815862 -0.565299,2.233329 -1.038736,4.488909 -1.419117,6.761051 0.937555,-0.288725 2.357738,-0.745783 4.234979,-1.419118 0.457058,-0.649896 1.324296,-1.443621 2.526072,-2.382242 0.288724,-0.09589 0.6744,-0.241846 1.131458,-0.432554 l -1.250784,3.53714 3.657531,6.327431 0.841668,-4.788988 -1.131458,-3.68097 0.288724,-1.251849 -0.692512,-0.720212 c 1.878306,-0.937555 4.788989,-2.141461 8.735243,-3.657531 0.193904,14.583244 1.588517,30.70493 4.234979,48.367191 2.11506,-0.6401 4.224635,-1.29819 6.328497,-1.97419 -0.24382,2.58796 -0.06017,4.8843 -1.90068,6.49683 -0.890677,0.74471 -1.323231,1.63646 -1.323231,2.67096 0,0.36117 0.265286,0.96206 0.842734,1.75472 0.552945,0.79586 0.841669,1.54058 0.841669,2.19154 0,0.45706 -0.07138,1.20284 -0.216277,2.1894 -0.144895,0.98763 -0.216277,1.70891 -0.216277,2.19047 l -1.829297,0.55401 c 1.22841,7.33957 2.623023,14.39041 4.236044,21.15146 z M 50.873244,30.556487 50.17647,28.294635 50.3203,27.451901 49.188841,26.320443 48.059513,29.570989 50.3203,33.516178 Z m -8.181233,33.688064 c -1.966942,-9.10716 -3.660278,-18.27126 -5.077718,-27.479958 -3.46575,14.750508 -5.8725,25.988388 -7.19573,33.688058 4.52477,-2.52607 8.61592,-4.59508 12.273448,-6.2081 z m -27.215728,28.34612 -0.40912,-0.9855 -1.42018,1.8293 0.28872,3.39331 0.98657,-1.97419 0.14489,-1.70891 z m 4.37987,5.51133 -0.57745,-1.7089 -2.09351,2.95969 0.55401,4.932809 c 1.22734,-1.87617 1.78135,-3.70653 1.6844,-5.485759 z"
         id="path1742"
         style="fill:#d45500;stroke-width:1.0654"
         sodipodi:nodetypes="ccccccccccccccsccscccccccscscscccscccccccccccccccscscccccccccccccccccccccccccccc" /><path
         d="m 135.25194,31.318345 c 0,11.477591 -5.07665,21.536071 -15.23101,30.174361 6.78556,2.26078 10.15436,6.66516 10.15436,13.25895 0,2.62195 -0.50606,5.48469 -1.54057,8.58928 -3.20047,8.92808 -9.45652,15.76051 -18.74471,20.453614 -8.1823,4.04214 -17.445976,6.01527 -27.793176,5.92045 l -1.13146,1.97206 -1.97313,-1.39568 c -0.64883,0.45706 -1.54057,1.20391 -2.67203,2.23948 l -0.43255,-3.25055 c -2.62303,-0.16726 -5.48577,-0.64776 -8.59035,-1.39567 l 0.69784,-2.40569 c 1.32323,-0.0969 3.39331,-0.98656 6.2081,-2.67096 l -1.6844,-1.27635 3.10459,-1.1304 -2.26185,-0.555074 -1.8293,0.288724 -0.57745,-0.143834 -0.40912,0.143834 -0.6989,-0.432554 -0.86511,-1.27529 4.81349,-2.23841 -2.26185,-4.81349 2.38118,0.28872 c -1.78029,-17.46942 -2.91068,-32.89433 -3.36774,-46.24917 -3.21925,2.20919 -6.37313,4.51216 -9.45759,6.90595 -0.26422,-1.29979 -0.69784,-3.22498 -1.25078,-5.77555 l 2.95862,0.14596 5.343,-5.07878 -4.23498,0.55401 -3.08114,1.99656 -1.1304,0.12146 -0.28872,0.57638 -0.69784,-2.81586 c 0.36117,-0.0959 0.55294,-0.23971 0.55294,-0.43255 0,-0.0959 -0.23971,-0.33667 -0.69677,-0.69784 -0.4805,-0.38461 -0.74578,-0.721279 -0.84167,-0.986565 l 0.55295,-0.432554 c -0.0959,-0.09589 -0.14383,-0.192838 -0.14383,-0.288724 0,-0.263155 0.74471,-0.841669 2.26078,-1.684403 1.49263,-0.841669 2.26292,-1.396744 2.26292,-1.683337 0,-0.193904 -0.0959,-0.458124 -0.28872,-0.771353 -0.19284,-0.335602 -0.77029,-0.552944 -1.75579,-0.649896 -0.98763,-0.09589 -1.63539,-0.361171 -1.90068,-0.841668 l 0.55295,-0.432554 c -1.32217,0.38461 -2.35668,0.578514 -3.10353,0.578514 -0.74578,0 -0.84166,-0.193904 -0.28872,-0.578514 -0.16833,0.09589 -0.36117,0.241846 -0.55401,0.432554 v -0.14383 c 0,-0.193903 0.24078,-0.6744 0.69784,-1.468126 0.4805,-0.819295 0.72128,-1.347735 0.72128,-1.63646 0,-0.457058 -0.19177,-0.506066 -0.57745,-0.143829 v -2.239478 c 0.19284,-0.09589 1.1794,-0.81823 2.95969,-2.116957 6.85907,-5.076648 14.39041,-9.166732 22.57164,-12.272383 8.83219,-3.393311 17.1807,-5.0766485 25.098776,-5.0766485 7.98839,0 14.55767,1.7312805 19.73127,5.2194125 5.82243,4.144419 8.73311,10.016924 8.73311,17.620708 z m -23.12352,8.181234 c 0,-4.980761 -2.95969,-7.459955 -8.87907,-7.459955 -2.06901,0 -4.548206,0.38461 -7.458886,1.131458 -1.42018,13.716004 -2.11909,22.596144 -2.11909,26.638284 12.297956,-7.60485 18.457046,-14.3904 18.457046,-20.309787 z m -39.464666,-12.127488 -4.23498,0.576383 -3.10246,1.974193 h -1.27635 l -1.39568,2.238413 4.50026,0.288724 z m 1.25291,9.022902 -2.23841,0.288725 -1.56508,0.986563 -0.69784,0.144895 -0.69677,1.131459 2.38224,0.143829 z m 35.684626,45.118773 c 0,-2.06901 -1.9742,-3.10352 -5.91939,-3.10352 -2.81586,0 -6.352996,0.57745 -10.587976,1.70891 0.0959,2.71997 -0.0959,6.76105 -0.55507,12.12855 3.29849,-0.57851 6.66623,-1.75685 10.154356,-3.53714 4.59935,-2.26398 6.90808,-4.64729 6.90808,-7.1968 z"
         id="path1341"
         style="stroke-width:1.0654;fill:#483737"
         sodipodi:nodetypes="scscccccccccccccccccccccccccccccccscccscsccccsccscsccccscsssccsccccccccccccccsscccs" /></g><g
       id="g1752"
       transform="matrix(-1.2492969,0,0,1.2558925,211.12526,59.889234)"><path
         d="m 2.0364121,97.048459 1.830363,0.55507 c 0.937555,2.164895 1.562947,3.488141 1.828233,3.945201 0.77206,1.23013 1.839239,2.24787 3.104586,2.96076 -0.1694,0.19177 -0.121456,0.3356 0.143829,0.43255 0.288724,0 0.793726,-0.28872 1.5650779,-0.8438 0.745782,-0.57638 1.250784,-0.84167 1.539508,-0.84167 0.192838,0.0969 0.240781,0.19391 0.144895,0.26529 1.780289,0.6744 4.474695,1.75578 8.037404,3.24841 2.1649,-7.506841 4.233914,-15.544241 6.207041,-24.111151 4.788989,1.78029 11.309262,4.6686 19.587442,8.61485 1.02309,6.32015 1.87395,12.666991 2.55164,19.033441 0.17001,0.093 0.36026,0.14272 0.55401,0.1449 0.28872,0 0.67333,-0.33667 1.20284,-0.98657 0.50607,-0.6744 0.86617,-0.98763 1.05901,-0.98763 0.64883,0 1.20284,0.77029 1.61302,2.31086 0.43256,1.56402 0.81823,2.47813 1.20284,2.74342 0,-0.1694 0.0479,-0.26529 0.1449,-0.26529 0.19284,0 0.91411,0.52844 2.1894,1.61196 1.27529,1.08458 1.99763,1.66096 2.19047,1.75578 -0.86617,-1.0345 -1.27529,-2.81586 -1.27529,-5.34193 l -0.69677,-1.13039 0.98656,-2.26292 2.959691,4.09115 -0.57851,5.36644 c 0.89068,0.45705 1.6844,0.69677 2.3588,0.69677 0.79373,0 1.32323,-0.4805 1.56402,-1.42018 0.24078,-0.93756 0.40911,-1.39568 0.50606,-1.39568 0.40912,0 0.98657,0.93862 1.78029,2.81586 -0.45706,-6.95282 -0.69677,-14.82296 -0.69677,-23.653031 0,-19.7089 -2.3098,-43.21809 -6.905951,-70.529714 -3.06417,-1.01038 -6.1202,-2.045274 -9.1678,-3.104585 -0.74578,-0.287659 -2.30979,-1.322166 -4.66859,-3.103521 -1.4905,-1.131458 -3.36881,-1.683337 -5.62959,-1.683337 -1.49157,0 -4.59615,-0.939686 -9.312694,-2.815862 0.565299,2.233329 1.038736,4.488909 1.419117,6.761051 -0.937555,-0.288725 -2.357738,-0.745783 -4.234979,-1.419118 -0.457058,-0.649896 -1.324296,-1.443621 -2.526072,-2.382242 -0.288724,-0.09589 -0.6744,-0.241846 -1.131458,-0.432554 l 1.250784,3.53714 -3.657531,6.327431 -0.841668,-4.788988 1.131458,-3.68097 -0.288724,-1.251849 0.692512,-0.720212 c -1.878306,-0.937555 -4.788989,-2.141461 -8.735243,-3.657531 -0.193904,14.583244 -1.588517,30.70493 -4.2349789,48.367191 -2.11506,-0.6401 -4.224635,-1.29819 -6.328497,-1.97419 0.24382,2.58796 0.06017,4.8843 1.90068,6.49683 0.890677,0.74471 1.323231,1.63646 1.323231,2.67096 0,0.36117 -0.265286,0.96206 -0.842734,1.75472 -0.552945,0.79586 -0.841669,1.54058 -0.841669,2.19154 0,0.45706 0.07138,1.20284 0.216277,2.1894 0.144895,0.98763 0.216277,1.70891 0.216277,2.19047 l 1.829297,0.55401 c -1.22841,7.33957 -2.623023,14.39041 -4.236044,21.15146 z M 22.20237,31.909685 l 0.696774,-2.261852 -0.14383,-0.842734 1.131459,-1.131458 1.129328,3.250546 -2.260787,3.945189 z m 8.181233,33.688064 c 1.966942,-9.10716 3.660278,-18.27126 5.077718,-27.479958 3.46575,14.750508 5.8725,25.988388 7.19573,33.688058 -4.52477,-2.52607 -8.61592,-4.59508 -12.273448,-6.2081 z m 27.215728,28.34612 0.40912,-0.9855 1.42018,1.8293 -0.28872,3.39331 -0.98657,-1.97419 -0.14489,-1.70891 z m -4.37987,5.51133 0.57745,-1.7089 2.09351,2.959691 -0.55401,4.93282 c -1.22734,-1.87617 -1.78135,-3.70653 -1.6844,-5.48577 z"
         id="path1748"
         style="fill:#241c1c;stroke-width:1.0654"
         sodipodi:nodetypes="ccccccccccccccsccscccccccscscscccscccccccccccccccscscccccccccccccccccccccccccccc" /><path
         d="m 55.315784,31.318345 c 0,11.477591 5.07665,21.536071 15.23101,30.174361 -6.78556,2.26078 -10.15436,6.66516 -10.15436,13.25895 0,2.62195 0.50606,5.48469 1.54057,8.58928 3.20047,8.92808 9.45652,15.76051 18.74471,20.453614 8.1823,4.04214 17.445976,6.01527 27.793176,5.92045 l 1.13146,1.97206 1.97313,-1.39568 c 0.64883,0.45706 1.54057,1.20391 2.67203,2.23948 l 0.43255,-3.25055 c 2.62303,-0.16726 5.48577,-0.64776 8.59035,-1.39567 l -0.69784,-2.40569 c -1.32323,-0.0969 -3.39331,-0.98656 -6.2081,-2.67096 l 1.6844,-1.27635 -3.10459,-1.1304 2.26185,-0.555074 1.8293,0.288724 0.57745,-0.143834 0.40912,0.143834 0.6989,-0.432554 0.86511,-1.27529 -4.81349,-2.23841 2.26185,-4.81349 -2.38118,0.28872 c 1.78029,-17.46942 2.91068,-32.89433 3.36774,-46.24917 3.21925,2.20919 6.37313,4.51216 9.45759,6.90595 0.26422,-1.29979 0.69784,-3.22498 1.25078,-5.77555 l -2.95862,0.14596 -5.343,-5.07878 4.23498,0.55401 3.08114,1.99656 1.1304,0.12146 0.28872,0.57638 0.69784,-2.81586 c -0.36117,-0.0959 -0.55294,-0.23971 -0.55294,-0.43255 0,-0.0959 0.23971,-0.33667 0.69677,-0.69784 0.4805,-0.38461 0.74578,-0.721279 0.84167,-0.986565 l -0.55295,-0.432554 c 0.0959,-0.09589 0.14383,-0.192838 0.14383,-0.288724 0,-0.263155 -0.74471,-0.841669 -2.26078,-1.684403 -1.49263,-0.841669 -2.26292,-1.396744 -2.26292,-1.683337 0,-0.193904 0.0959,-0.458124 0.28872,-0.771353 0.19284,-0.335602 0.77029,-0.552944 1.75579,-0.649896 0.98763,-0.09589 1.63539,-0.361171 1.90068,-0.841668 l -0.55295,-0.432554 c 1.32217,0.38461 2.35668,0.578514 3.10353,0.578514 0.74578,0 0.84166,-0.193904 0.28872,-0.578514 0.16833,0.09589 0.36117,0.241846 0.55401,0.432554 v -0.14383 c 0,-0.193903 -0.24078,-0.6744 -0.69784,-1.468126 -0.4805,-0.819295 -0.72128,-1.347735 -0.72128,-1.63646 0,-0.457058 0.19177,-0.506066 0.57745,-0.143829 v -2.239478 c -0.19284,-0.09589 -1.1794,-0.81823 -2.95969,-2.116957 -6.85907,-5.076648 -14.39041,-9.166732 -22.57164,-12.272383 -8.83219,-3.393311 -17.1807,-5.0766485 -25.098776,-5.0766485 -7.98839,0 -14.55767,1.7312805 -19.73127,5.2194125 -5.82243,4.144419 -8.73311,10.016924 -8.73311,17.620708 z m 23.12352,8.181234 c 0,-4.980761 2.95969,-7.459955 8.87907,-7.459955 2.06901,0 4.548206,0.38461 7.458886,1.131458 1.42018,13.716004 2.11909,22.596144 2.11909,26.638284 -12.297956,-7.60485 -18.457046,-14.3904 -18.457046,-20.309787 z m 39.464666,-12.127488 4.23498,0.576383 3.10246,1.974193 h 1.27635 l 1.39568,2.238413 -4.50026,0.288724 z m -1.25291,9.022902 2.23841,0.288725 1.56508,0.986563 0.69784,0.144895 0.69677,1.131459 -2.38224,0.143829 z M 80.966434,81.513766 c 0,-2.06901 1.9742,-3.10352 5.91939,-3.10352 2.81586,0 6.352996,0.57745 10.587976,1.70891 -0.0959,2.71997 0.0959,6.76105 0.55507,12.12855 -3.29849,-0.57851 -6.66623,-1.75685 -10.154356,-3.53714 -4.59935,-2.26398 -6.90808,-4.64729 -6.90808,-7.1968 z"
         id="path1750"
         style="fill:#803300;stroke-width:1.0654"
         sodipodi:nodetypes="scscccccccccccccccccccccccccccccccscccscsccccsccscsccccscsssccsccccccccccccccsscccs" /></g></g></svg>
